<?xml version="1.0" encoding="iso-8859-1"?>
<!-- Generator: Adobe Illustrator 18.1.1, SVG Export Plug-In . SVG Version: 6.00 Build 0)  -->
<svg version="1.1" id="Capa_1" xmlns="http://www.w3.org/2000/svg" xmlns:xlink="http://www.w3.org/1999/xlink" x="0px" y="0px"
	 viewBox="0 0 304.588 304.588" style="enable-background:new 0 0 304.588 304.588;" xml:space="preserve">
<g>
	<g>
		<path style="fill:#010002;" d="M250.197,228.441H54.391c-2.91,0-5.684-0.598-8.224-1.637l-23.769,23.769
			c8.991,6.57,20.027,10.503,31.993,10.503h195.806c12.575,0,24.139-4.329,33.358-11.525l-23.551-23.551
			C257.045,227.505,253.743,228.441,250.197,228.441z"/>
		<path style="fill:#010002;" d="M266.035,83.082c3.644,3.894,5.918,9.083,5.918,14.821v108.781c0,4.498-1.371,8.686-3.72,12.156
			l23.203,23.203c8.175-9.518,13.152-21.86,13.152-35.359V97.903c0-14.734-5.912-28.104-15.463-37.91L266.035,83.082z"/>
		<path style="fill:#010002;" d="M54.391,43.513c-12.113,0-23.274,4.03-32.324,10.748l23.693,23.693
			c2.649-1.153,5.564-1.806,8.632-1.806h195.806c2.219,0,4.319,0.43,6.337,1.05l24.242-24.242
			c-8.719-5.95-19.249-9.442-30.578-9.442H54.391z"/>
		<path style="fill:#010002;" d="M32.634,206.684V97.903c0-4.96,1.735-9.486,4.542-13.152l-23.16-23.16
			C5.336,71.23,0,83.941,0,97.903v108.781c0,14.109,5.445,26.94,14.288,36.616l23.149-23.149
			C34.478,216.437,32.634,211.792,32.634,206.684z"/>
	</g>
</g>
<g>
</g>
<g>
</g>
<g>
</g>
<g>
</g>
<g>
</g>
<g>
</g>
<g>
</g>
<g>
</g>
<g>
</g>
<g>
</g>
<g>
</g>
<g>
</g>
<g>
</g>
<g>
</g>
<g>
</g>
</svg>
